P3
40 27
255
20
75
103
22
82
109
23
85
112
23
87
114
23
88
115
29
93
119
40
99
123
42
100
123
43
101
121
52
105
125
64
112
128
74
118
131
76
120
131
79
123
132
87
128
135
101
136
138
119
146
141
103
134
136
102
134
136
94
129
133
81
122
130
87
124
130
96
126
129
121
137
132
127
138
135
118
133
127
108
128
121
132
141
119
132
140
117
120
134
117
124
137
115
125
136
114
131
138
112
130
138
112
126
137
114
123
136
116
119
134
116
110
128
115
90
115
111
69
101
105
19
72
99
21
77
105
21
79
107
21
81
109
24
85
113
32
90
116
40
95
119
45
98
121
48
99
120
50
100
121
59
106
123
70
113
127
73
115
129
76
118
130
83
123
132
86
123
132
98
128
134
102
131
135
102
132
135
87
121
130
81
118
128
77
115
126
95
122
127
110
128
129
115
129
130
110
125
127
103
121
118
129
134
117
118
127
115
113
124
114
103
119
113
100
116
111
112
123
110
104
118
110
105
119
112
100
116
112
103
120
113
111
124
112
98
116
109
84
105
101
17
66
92
20
73
98
20
74
99
19
74
100
23
79
104
36
89
112
46
95
117
54
100
120
52
99
119
53
100
118
56
101
119
68
108
123
66
106
122
68
108
122
71
111
122
81
115
125
83
115
124
85
118
127
84
116
126
78
112
121
83
116
126
82
115
125
92
118
123
96
118
123
95
117
123
93
114
120
98
116
118
117
125
117
112
122
115
110
119
110
98
111
100
91
107
100
92
109
107
89
108
109
97
112
110
104
117
111
97
113
108
102
116
107
100
114
102
91
107
99
14
59
80
22
68
90
28
74
96
20
71
93
24
74
96
36
84
106
48
93
114
54
97
114
54
96
114
54
98
116
55
99
117
62
99
113
63
96
108
53
70
72
69
101
111
73
106
117
75
107
116
78
109
118
76
106
114
79
108
115
84
111
116
83
109
114
84
107
112
88
109
114
91
112
117
83
107
116
78
103
113
94
111
114
103
115
112
113
119
107
101
111
101
86
102
97
83
101
99
79
99
102
82
101
103
96
109
104
92
107
103
90
104
96
85
101
91
90
104
90
21
56
73
26
62
80
30
67
86
27
67
86
26
70
88
25
71
90
44
86
104
55
93
110
57
94
110
57
95
111
59
94
107
52
71
71
48
59
56
52
60
53
66
90
94
70
101
111
69
100
111
69
99
109
68
97
107
75
103
111
81
105
111
80
103
109
84
104
110
86
105
110
87
105
109
72
96
105
68
94
104
81
99
103
100
108
99
109
112
97
101
107
95
88
100
96
80
96
97
73
93
96
78
95
96
82
97
97
74
92
94
83
98
95
73
90
88
88
100
89
20
52
67
21
54
70
23
58
76
25
61
79
30
67
85
29
69
87
43
80
98
52
89
106
53
90
106
52
90
107
56
91
105
47
64
65
48
58
53
63
76
71
64
77
72
74
101
110
73
101
110
68
96
107
68
95
105
80
103
109
99
115
115
98
113
113
101
113
113
94
108
110
86
102
106
73
92
100
67
88
97
79
95
97
92
102
96
94
101
93
91
99
91
86
97
91
84
97
94
72
90
93
70
87
90
72
86
86
71
87
87
80
92
87
91
101
89
93
104
90
16
47
62
22
51
66
28
58
74
29
60
77
28
62
80
33
69
87
40
76
94
50
85
101
52
87
104
51
87
105
47
84
102
54
88
104
63
84
91
78
102
111
81
103
108
79
103
111
78
101
110
78
102
110
81
104
111
93
110
113
114
122
118
118
125
118
120
124
116
101
111
109
85
100
105
78
94
101
73
91
98
85
98
99
86
97
95
84
95
92
88
98
95
82
93
92
88
99
96
84
96
95
73
86
86
73
85
82
74
86
81
74
85
79
88
97
86
83
95
82
18
45
60
22
49
65
28
56
71
32
61
77
30
61
78
34
68
85
39
72
90
43
77
94
46
80
98
42
77
96
43
78
97
57
90
105
74
96
105
78
95
101
83
105
113
88
108
114
94
112
116
99
117
119
106
120
122
119
126
122
131
133
122
135
135
121
133
130
119
109
113
112
92
104
106
81
96
101
75
92
97
86
98
97
89
99
97
80
90
90
85
95
92
89
99
95
85
96
95
82
92
89
72
83
82
77
86
81
74
84
78
71
82
75
78
88
77
81
91
77
17
43
57
22
49
64
27
54
70
31
59
75
34
63
80
35
67
86
42
73
92
45
77
96
52
82
101
50
81
101
62
90
108
77
100
113
82
103
114
80
95
102
93
110
117
100
115
121
115
126
127
126
135
132
134
138
134
137
137
130
140
138
129
142
138
128
137
134
126
125
124
120
104
110
111
89
99
104
85
97
101
99
106
103
101
106
98
87
93
89
86
93
87
88
95
90
83
92
88
79
89
84
82
91
82
83
90
81
80
88
78
74
83
74
73
84
74
74
84
73
19
44
59
23
49
65
27
54
70
33
61
78
39
67
84
40
70
89
42
72
92
58
86
103
64
90
108
71
95
111
77
99
113
84
103
115
88
106
117
80
94
103
95
110
119
102
115
124
114
122
129
131
134
134
141
140
136
143
140
132
140
139
133
143
140
135
145
140
132
134
131
125
117
117
115
103
107
109
106
110
108
115
115
106
114
112
100
103
104
93
90
94
88
82
88
84
80
86
82
87
93
85
85
91
81
85
90
79
91
93
79
88
91
77
81
88
75
74
84
73
27
51
66
30
55
70
30
57
72
38
66
83
47
73
90
48
75
94
48
76
95
56
83
102
71
94
112
79
99
115
76
97
111
82
100
114
82
97
110
86
96
106
102
112
122
101
112
125
112
118
129
134
133
132
138
136
132
142
139
134
140
138
134
139
136
132
138
135
130
138
134
128
129
126
121
117
116
113
123
119
112
123
118
106
120
114
99
116
111
96
98
101
90
77
83
83
78
83
81
86
91
83
88
92
81
99
98
82
103
100
81
102
99
80
96
96
77
90
93
76
33
55
71
39
63
79
40
65
81
45
70
87
52
76
92
58
82
99
55
81
99
65
87
106
74
94
111
78
97
112
84
101
115
79
96
110
79
89
101
98
105
117
113
116
124
120
121
129
124
125
129
129
128
129
135
134
130
139
136
133
139
136
133
131
129
125
133
130
127
131
128
125
127
123
118
124
120
116
130
123
115
130
121
108
138
125
105
129
119
99
103
103
92
85
89
85
86
89
83
97
98
85
109
105
86
109
104
83
116
107
84
108
102
80
102
99
78
90
90
73
42
64
80
50
73
91
55
78
95
58
80
97
61
81
98
63
83
101
68
87
105
75
92
108
74
92
108
76
94
110
94
106
118
91
100
111
95
101
113
111
112
121
116
115
121
125
123
127
133
132
130
132
131
130
134
133
129
136
135
132
136
135
132
132
130
126
129
128
125
125
123
121
120
117
115
118
115
112
122
116
109
141
128
113
148
131
109
137
123
100
116
109
95
97
97
89
114
107
91
120
111
91
111
105
86
113
104
83
125
111
85
115
105
81
106
100
77
93
92
74
51
76
96
53
79
101
57
83
106
59
86
108
64
87
110
66
88
110
72
92
113
81
98
119
86
102
121
98
109
126
103
112
129
108
114
127
113
115
124
122
122
128
122
121
129
128
127
133
144
143
141
145
144
142
145
144
141
148
147
142
146
145
141
143
142
139
146
145
141
140
138
135
128
127
124
124
122
119
129
122
116
138
126
114
146
130
113
142
126
109
124
114
101
107
105
96
122
113
97
124
114
97
119
110
92
127
114
90
138
121
93
124
111
87
113
104
82
106
101
81
61
87
113
61
89
116
59
88
116
62
91
118
73
97
123
80
100
123
86
103
125
100
113
132
110
119
135
116
123
138
115
121
136
121
125
137
118
118
123
133
131
131
139
136
135
144
141
140
158
156
151
163
161
157
160
158
153
162
160
156
161
158
154
156
153
149
154
151
148
154
150
146
146
142
137
143
139
133
142
135
128
159
143
128
167
148
128
155
139
120
142
129
113
133
122
108
144
129
108
143
127
106
145
129
104
165
143
107
171
147
105
160
139
100
152
133
95
149
132
93
82
93
107
88
99
112
100
108
116
107
112
119
115
119
124
114
117
122
129
128
126
136
133
129
138
135
131
136
133
130
152
144
136
155
146
136
131
125
120
166
156
146
169
159
150
178
167
155
179
168
157
184
172
160
185
174
163
189
177
166
191
177
164
190
173
158
181
167
153
189
169
149
187
166
141
192
168
137
189
164
131
197
170
131
201
173
127
195
167
120
194
165
115
192
162
112
195
164
109
195
165
107
198
167
106
204
172
108
204
173
106
198
167
101
195
165
99
192
165
98
128
122
111
141
132
115
149
137
117
156
142
120
159
144
124
152
138
121
162
146
124
170
151
127
173
154
130
186
165
137
193
170
140
179
157
131
171
152
128
203
179
149
207
182
155
211
186
159
213
189
161
217
193
162
219
194
164
222
197
167
227
200
169
224
196
161
219
189
154
221
191
150
220
188
142
224
193
139
216
184
131
196
166
116
223
190
128
225
192
125
223
188
118
219
183
113
221
187
116
221
186
112
219
184
110
219
185
111
214
181
106
208
175
100
201
169
96
195
165
92
105
93
75
124
109
86
132
115
90
138
120
94
144
125
98
142
123
98
153
132
104
165
141
112
166
142
113
171
147
117
188
161
127
179
153
122
182
160
129
209
181
147
211
183
151
216
188
157
224
195
160
224
196
160
225
197
162
227
199
164
232
203
165
231
200
160
225
192
151
224
192
146
227
195
141
217
186
131
177
151
111
159
129
93
230
193
123
232
195
121
230
192
117
225
188
112
227
190
112
227
191
111
227
192
113
223
190
112
218
183
105
208
174
96
197
164
88
186
154
82
131
116
89
144
126
96
147
128
98
156
135
104
166
143
109
169
146
112
174
150
116
178
153
119
176
151
120
185
158
125
192
164
127
185
157
125
167
146
120
204
175
144
212
182
150
217
186
153
221
190
155
225
194
156
224
193
157
227
197
159
232
201
161
235
202
159
230
197
152
231
198
145
229
194
136
192
164
116
137
115
94
210
171
105
234
196
120
228
188
112
223
183
104
225
186
107
223
185
103
220
182
100
226
190
109
226
192
112
216
180
99
210
174
93
194
160
83
182
149
78
132
116
91
143
124
97
144
125
97
146
127
99
154
133
104
158
135
106
162
139
109
162
138
110
164
139
112
172
146
118
182
154
124
168
143
117
153
133
114
191
163
137
201
170
142
205
173
144
210
177
146
216
184
150
218
185
150
219
187
149
226
192
152
228
193
149
218
183
140
210
176
129
207
173
120
194
162
110
135
111
88
215
175
106
229
189
111
225
184
103
223
182
100
226
185
103
225
185
101
224
185
100
226
189
105
223
187
103
211
172
90
200
163
84
188
152
78
176
142
73
117
104
83
125
110
86
132
116
90
134
117
93
137
118
95
148
126
101
149
127
102
149
126
102
151
129
106
155
131
108
162
136
113
140
120
104
138
120
107
179
152
131
191
160
134
195
161
135
200
166
139
209
176
144
210
177
142
213
179
142
219
183
141
219
179
137
214
174
128
182
148
109
148
121
93
138
115
88
131
104
80
180
146
91
228
186
104
219
178
94
219
177
91
226
186
98
220
179
91
227
188
97
227
189
99
217
178
88
198
158
77
184
146
73
187
150
75
181
146
72
97
88
74
110
97
80
128
111
88
125
109
88
121
106
88
128
111
91
130
112
92
130
112
96
133
114
99
135
116
101
142
121
106
96
87
83
119
104
94
184
155
128
192
160
131
195
159
132
200
165
135
207
173
139
211
177
140
211
175
136
212
173
130
209
167
124
210
167
118
193
154
106
132
102
79
120
95
75
136
105
73
182
143
81
216
176
90
216
174
84
218
176
83
232
193
97
223
184
90
224
184
88
227
189
93
222
183
88
198
159
72
188
149
69
191
153
72
183
147
69
98
88
72
111
98
79
123
107
85
123
106
88
115
100
85
114
100
86
126
110
92
131
113
97
123
107
96
126
109
99
122
108
101
120
102
92
148
121
104
183
153
125
188
155
126
189
154
126
197
161
129
202
167
130
199
163
126
201
163
123
203
162
120
205
161
117
206
163
109
197
155
97
193
150
85
176
138
83
174
135
74
230
190
96
231
192
95
221
182
84
215
176
78
227
189
88
231
195
96
226
188
88
227
190
90
225
188
89
207
169
73
195
156
66
186
149
65
181
145
64
93
84
71
103
91
76
115
101
82
116
101
83
113
99
84
113
99
85
122
106
90
123
106
94
112
100
93
120
106
98
130
112
102
132
111
100
148
121
104
166
136
116
172
140
117
176
142
118
186
150
119
190
153
118
187
150
114
192
153
112
205
164
114
210
167
111
213
171
106
212
171
98
221
181
97
220
182
96
198
159
74
235
202
112
239
210
123
237
206
114
232
200
104
234
204
109
234
204
108
229
199
104
233
205
113
234
207
115
222
191
92
206
171
75
199
165
68
186
152
63
85
77
66
93
83
71
100
88
75
97
86
75
95
84
76
98
87
78
106
93
83
108
96
88
105
95
89
119
104
96
132
112
101
130
109
99
139
113
98
148
122
107
154
126
108
152
125
109
171
137
111
183
145
109
182
144
107
184
146
103
201
161
105
208
169
106
204
167
101
202
165
93
218
181
95
223
189
99
208
175
84
232
204
116
237
212
125
234
206
114
234
207
117
230
202
106
234
208
115
226
199
104
230
203
108
230
205
112
220
192
95
216
185
84
201
169
70
194
162
67
73
68
62
78
71
64
85
76
68
83
74
68
86
77
71
84
77
73
99
88
80
108
95
87
100
91
87
107
97
92
123
106
97
122
103
95
126
103
92
133
111
99
135
112
100
127
107
98
143
115
99
166
130
101
170
133
99
181
143
97
194
155
96
194
155
92
182
146
86
185
150
80
204
169
84
223
192
99
222
194
100
231
205
112
234
209
117
228
203
110
229
206
116
227
205
115
230
210
123
226
205
113
222
198
100
221
194
92
218
188
84
208
177
71
199
167
63
189
155
58
61
58
56
69
64
60
71
66
62
71
66
63
70
67
64
78
73
69
92
83
76
94
84
79
84
81
79
92
88
85
110
96
90
106
93
89
110
92
86
115
97
90
116
98
90
115
97
89
127
104
91
153
120
94
162
126
92
168
133
90
178
141
87
181
144
83
168
134
78
171
139
76
197
168
86
211
186
97
223
201
113
220
199
111
219
200
113
224
207
122
218
202
117
221
204
119
228
212
128
221
203
113
213
193
100
216
194
97
213
188
87
195
169
69
189
159
61
179
148
55
