P3
40 25
255
72
88
113
83
99
123
96
111
135
101
119
141
100
118
140
102
119
141
103
119
141
109
126
148
114
131
151
118
134
153
120
136
155
123
137
156
124
139
157
123
140
158
124
141
158
126
141
159
128
143
160
128
143
160
131
144
160
135
145
161
136
145
161
137
146
161
137
145
161
136
145
160
135
144
160
133
143
159
129
141
157
129
139
155
131
137
153
133
134
150
133
132
148
131
131
146
124
130
146
116
131
148
115
129
146
114
124
141
116
118
136
114
108
125
108
114
133
104
119
137
72
61
84
67
67
88
82
82
102
94
101
119
89
96
116
78
82
105
75
77
99
86
86
107
99
99
119
114
115
133
124
124
140
132
136
151
135
145
158
136
147
160
136
148
161
136
149
162
137
150
162
139
151
163
141
151
164
143
152
164
144
152
163
143
152
163
136
142
153
148
149
154
151
156
166
141
149
160
139
149
161
137
147
160
137
146
159
136
145
157
134
143
156
135
139
153
134
135
149
129
136
150
129
132
146
127
130
144
122
126
140
125
122
136
114
120
135
110
123
138
113
113
125
110
112
124
110
117
130
111
111
124
107
112
125
102
105
121
96
86
104
98
87
104
91
74
94
85
73
94
89
81
101
103
98
115
121
123
135
136
138
148
147
146
154
150
152
159
152
157
164
152
158
165
153
158
166
155
159
166
155
159
165
155
159
165
154
158
165
156
158
164
155
158
164
152
157
163
150
155
162
149
154
161
149
152
159
147
151
157
143
148
156
141
147
155
138
144
153
135
143
151
133
139
148
135
134
142
132
132
142
124
127
137
110
108
120
97
106
120
116
115
125
116
112
122
106
94
107
110
103
114
98
93
105
104
103
115
115
110
119
131
123
129
135
120
127
128
112
120
131
113
121
123
103
114
107
86
100
126
103
113
154
131
136
166
148
151
167
160
161
167
163
164
166
164
166
167
165
166
166
165
165
168
163
164
167
160
161
166
158
159
165
160
160
163
159
159
164
158
158
164
153
154
162
151
152
157
144
146
151
136
139
152
144
146
153
146
148
149
146
149
145
145
147
141
140
144
135
129
134
122
123
129
107
108
118
98
99
111
121
117
121
130
125
126
142
125
126
141
133
134
141
132
133
124
97
105
113
87
99
123
96
105
127
105
112
129
109
115
127
107
113
131
106
111
154
119
122
166
128
128
164
125
125
162
120
122
174
138
136
178
144
141
185
152
146
184
163
157
183
170
162
187
162
155
189
153
146
173
143
138
169
146
142
181
156
150
183
161
153
180
163
155
177
158
150
173
154
147
172
154
147
167
153
147
163
151
146
158
151
146
152
146
142
137
129
129
116
109
113
112
108
114
114
110
114
120
118
120
72
65
80
73
65
81
91
81
91
107
98
101
140
127
121
139
116
114
148
113
110
141
102
103
139
83
89
154
88
92
165
90
91
166
97
96
159
88
90
159
85
88
164
92
92
159
84
87
183
105
101
194
141
129
202
165
147
203
169
150
199
173
154
200
173
154
203
174
153
204
168
147
198
166
147
196
170
150
196
168
149
192
164
147
188
160
144
183
160
144
178
158
143
173
154
142
168
151
139
161
147
137
157
145
136
151
140
131
125
115
113
116
107
108
125
114
112
126
114
112
103
63
71
93
57
70
105
56
70
112
60
71
117
68
77
125
68
76
134
73
78
154
88
87
176
99
91
171
91
86
167
81
79
169
93
88
175
94
88
185
92
83
201
100
86
203
88
76
202
85
73
213
94
77
207
109
94
208
136
115
223
160
130
227
167
134
227
165
132
217
163
134
207
157
131
203
156
130
204
162
135
198
162
136
194
149
128
184
148
129
177
141
124
149
113
107
125
97
97
122
97
97
134
110
105
155
131
117
151
130
117
147
129
116
141
122
111
137
121
110
159
105
85
161
105
85
160
101
84
164
105
85
163
100
83
161
94
80
165
88
76
169
86
75
168
86
75
172
89
77
182
87
74
186
85
70
198
115
92
202
114
91
211
104
82
206
103
82
207
104
83
214
104
79
227
118
83
240
145
103
231
156
117
233
155
116
228
147
112
223
153
117
215
142
111
211
146
116
205
145
115
196
141
115
195
134
109
181
129
108
178
123
103
173
125
105
173
130
108
169
130
109
162
127
107
155
120
102
146
115
100
136
112
99
143
120
102
136
114
98
143
81
68
133
77
68
141
80
68
140
81
70
143
84
71
141
86
74
137
86
75
146
94
79
157
103
82
160
100
81
162
96
78
173
98
78
188
103
78
211
109
77
209
106
76
219
123
82
229
133
84
220
132
84
220
129
84
235
130
75
209
150
127
231
124
80
218
119
84
208
130
95
195
135
100
187
129
99
175
119
95
171
118
94
174
121
95
169
118
94
171
117
93
173
112
89
159
100
84
151
100
83
138
91
79
128
84
77
111
76
76
112
82
79
127
95
82
128
98
83
104
60
63
109
62
63
107
63
63
118
68
63
122
69
64
126
70
64
128
71
64
132
73
65
133
73
65
135
75
65
135
75
66
142
76
66
146
77
65
157
80
65
171
87
67
177
95
70
187
103
72
189
105
73
195
108
73
202
139
114
188
166
156
188
107
76
183
104
75
180
100
74
184
100
74
178
98
74
165
95
74
163
95
74
153
92
75
153
92
75
149
92
74
146
90
74
155
124
115
172
159
152
135
99
88
122
77
70
112
73
70
104
71
69
99
70
69
97
69
68
91
73
73
93
74
75
95
76
77
99
80
80
102
83
83
101
82
82
98
79
79
98
81
81
100
84
84
101
87
87
102
89
91
105
91
94
109
91
93
113
91
94
120
91
92
123
91
91
129
95
94
130
91
89
140
95
89
177
151
142
161
144
137
138
95
88
135
96
91
141
96
89
145
98
88
141
97
86
138
98
90
139
99
90
139
100
91
136
100
90
134
101
92
130
102
93
119
105
100
109
101
96
130
112
103
126
100
90
122
99
90
120
100
90
116
99
90
114
96
86
74
82
91
77
85
94
81
89
98
83
91
100
91
101
109
98
108
116
102
111
118
96
104
113
98
107
116
96
106
116
93
105
116
94
105
116
89
100
111
83
94
106
93
103
114
91
100
113
93
100
114
97
104
117
92
101
113
85
93
104
94
101
110
93
100
109
81
93
103
91
101
110
102
109
114
111
118
121
112
117
120
120
125
128
120
124
127
123
125
127
120
124
123
128
125
124
168
145
138
138
127
119
132
130
124
133
134
129
133
134
127
130
132
124
128
130
123
131
133
124
91
95
99
89
94
99
87
92
98
93
99
105
104
109
115
121
124
128
123
127
131
137
138
140
150
147
149
147
146
149
148
147
148
158
155
155
161
157
157
171
164
163
155
149
150
156
149
148
152
146
147
162
153
151
160
151
149
151
143
140
147
142
140
150
145
144
142
140
140
147
142
140
153
146
142
149
144
141
148
144
142
156
152
148
161
158
153
148
147
143
140
142
142
166
152
148
164
146
138
143
136
126
164
160
150
156
154
143
151
149
139
148
146
136
155
153
141
154
152
140
130
135
146
136
140
149
123
128
140
138
141
152
142
146
158
136
140
152
137
140
151
149
150
158
168
168
175
169
167
172
171
167
172
171
167
172
180
175
178
180
175
179
180
176
184
174
173
183
164
163
175
158
158
169
164
159
166
142
139
147
133
135
150
142
141
156
154
150
161
155
155
169
159
158
169
148
150
166
155
157
172
159
159
171
161
161
171
160
161
171
160
159
168
175
158
152
127
118
113
145
147
153
141
142
148
133
135
140
135
137
142
137
138
140
133
133
132
120
121
119
100
100
108
104
105
113
109
111
121
116
119
129
123
126
136
125
127
137
130
132
142
131
133
144
141
142
154
139
140
151
133
133
143
130
131
142
142
141
154
150
149
162
140
136
150
141
139
150
139
134
145
133
131
142
139
136
147
134
132
141
131
127
136
129
126
134
129
125
134
133
129
136
135
130
138
145
140
148
143
139
148
142
139
147
155
153
160
142
141
147
155
143
142
152
145
143
200
191
183
173
169
166
166
163
159
153
152
150
154
152
150
156
153
149
147
144
138
146
143
136
122
121
127
129
127
133
137
136
141
139
138
145
149
147
155
156
152
158
152
148
154
152
146
152
161
154
160
171
165
170
176
170
176
175
169
177
185
178
183
181
173
179
175
165
170
170
158
163
166
156
163
163
155
166
156
149
158
155
147
158
164
154
159
163
153
158
168
157
163
162
152
160
165
153
158
164
153
160
166
156
162
169
159
165
165
157
162
163
156
158
159
150
149
163
157
156
190
181
174
200
193
185
158
153
144
129
124
118
143
138
135
169
163
159
163
158
156
167
161
157
140
137
147
138
136
146
150
147
154
156
151
159
151
146
155
167
160
164
163
155
161
173
164
170
182
167
165
178
160
157
177
162
161
193
178
176
202
185
179
185
165
162
189
166
159
185
158
146
187
160
148
192
165
152
191
164
148
187
160
145
187
162
148
184
156
142
186
158
144
192
164
147
189
163
146
196
172
158
197
175
162
204
183
167
207
186
167
203
184
166
199
181
164
188
173
156
77
82
83
160
159
161
209
207
203
180
175
172
70
62
58
115
103
89
142
129
109
173
158
134
129
116
110
133
119
112
139
125
118
145
131
124
154
138
129
160
144
136
166
149
141
170
152
145
173
155
148
177
158
152
181
161
155
185
164
157
186
165
158
187
166
157
183
160
153
176
155
148
176
154
144
174
151
139
177
152
137
182
155
139
183
157
141
186
160
144
184
160
145
181
158
143
184
161
146
186
164
150
187
166
152
188
169
154
188
169
154
189
173
158
190
175
160
193
177
159
110
111
105
50
64
68
110
112
117
148
148
149
159
156
152
78
68
63
87
76
67
132
120
98
121
108
101
124
110
102
125
113
105
135
122
116
142
130
125
144
130
124
149
135
128
154
136
128
160
143
136
161
143
136
167
149
143
174
155
149
173
153
144
177
157
149
177
155
146
174
153
145
170
151
142
176
157
149
172
151
142
165
143
131
163
141
128
160
140
128
164
145
133
166
146
133
166
146
133
169
150
139
169
151
138
171
153
141
171
156
144
171
156
142
169
156
143
169
157
143
158
150
139
80
90
87
101
107
109
47
51
51
57
58
57
32
28
26
63
54
49
81
74
61
108
93
84
114
100
91
123
113
107
128
117
111
128
116
108
132
117
109
137
122
114
142
127
118
149
135
127
154
139
132
158
143
135
164
146
136
165
146
135
165
147
136
173
151
138
175
152
136
175
152
135
176
152
135
175
151
133
172
149
132
173
149
132
166
145
130
161
141
128
159
140
127
155
137
125
156
140
129
157
141
130
155
141
131
154
141
129
137
122
107
149
134
117
151
140
124
150
139
127
130
124
106
103
107
97
99
107
103
71
81
78
50
54
53
23
20
17
126
113
95
107
87
69
110
90
72
113
94
77
117
98
81
123
104
89
127
110
96
132
115
101
134
119
106
138
123
112
145
128
117
151
133
120
156
138
124
160
141
127
162
143
128
167
146
129
169
147
128
169
147
127
171
148
127
172
147
125
171
145
123
167
142
120
165
140
117
163
137
114
158
133
112
153
135
117
162
144
126
153
135
122
146
129
110
167
151
130
176
162
142
156
142
124
128
115
100
109
94
78
132
120
101
133
128
113
143
135
119
116
111
96
117
113
97
68
64
52
58
51
41
110
89
69
112
93
71
115
97
77
117
101
82
120
104
87
123
107
92
128
112
97
134
118
102
140
123
107
147
129
112
153
135
116
159
139
120
163
143
124
168
148
128
171
151
129
172
151
129
171
150
129
173
151
129
172
150
125
172
147
122
170
146
120
168
142
116
166
140
113
139
119
96
122
105
82
137
119
94
117
101
81
130
110
87
126
106
83
141
123
101
162
145
123
184
168
148
182
168
150
109
98
81
111
105
91
138
134
117
99
94
80
112
105
88
113
105
88
92
86
70
106
87
72
109
91
74
109
92
76
112
96
81
115
99
84
121
104
88
129
112
94
134
116
99
140
121
103
144
126
107
151
132
112
154
136
116
158
140
120
162
143
124
166
147
126
168
148
127
170
149
127
172
150
127
172
150
125
170
147
122
167
144
119
157
136
112
145
127
104
151
132
110
161
143
120
139
124
102
92
78
63
102
86
69
116
95
74
120
101
79
123
109
87
130
120
107
152
145
135
145
138
130
154
148
141
149
146
140
143
141
132
170
164
144
150
140
119
121
111
93
102
83
70
106
87
73
107
89
75
111
94
77
115
98
81
120
102
85
126
108
90
130
113
94
134
116
98
138
120
101
142
124
106
146
128
109
150
132
113
154
136
117
159
139
120
159
140
119
161
141
119
162
141
118
160
140
117
159
139
116
154
135
111
125
110
88
120
106
84
143
133
114
156
145
124
158
145
124
167
156
133
133
122
101
94
82
63
88
78
61
110
106
86
56
60
55
49
51
50
66
65
61
100
98
93
112
109
106
120
121
114
126
118
96
112
100
77
111
102
83
99
80
67
100
83
69
104
86
72
108
89
74
110
93
77
113
96
81
119
103
86
123
106
89
127
110
92
129
113
96
133
117
100
135
119
100
139
122
104
142
124
106
145
127
108
146
128
108
148
129
107
146
128
105
138
122
100
115
103
87
94
85
74
100
94
81
169
165
144
179
177
154
168
168
148
164
164
146
165
163
145
162
154
134
159
148
125
103
100
83
81
84
73
60
66
64
78
76
74
91
85
80
119
113
108
134
131
127
140
141
134
102
93
72
108
95
72
117
106
83
